<svg width="100" height="100" viewBox="0 0 100 100" xmlns="http://www.w3.org/2000/svg">
  <defs>
    <linearGradient id="tile" x1="0" y1="0" x2="0" y2="1">
      <stop offset="0%" stop-color="#3A5A43"/>
      <stop offset="100%" stop-color="#233A2B"/>
    </linearGradient>
  </defs>
  <rect width="100" height="100" rx="23" fill="url(#tile)"/>
  <g fill="#F4EDDA">
    <rect x="48.8" y="12" width="2.4" height="11" rx="1.2"/>
    <path d="M50 8 C44 9 41 13 43 18 C48 17 51 13 50 8 Z"/>
    <path d="M50 8 C56 9 59 13 57 18 C52 17 49 13 50 8 Z"/>
    <path d="M39 24 C31 13 26 5 30 1 C38 5 46 15 45 24 Z"/>
    <path d="M61 24 C69 13 74 5 70 1 C62 5 54 15 55 24 Z"/>
    <path d="M50 22 C71 22 84 36 84 55 C84 74 71 87 50 87 C29 87 16 74 16 55 C16 36 29 22 50 22 Z"/>
  </g>
  <ellipse cx="38" cy="53" rx="8" ry="9" fill="#3A5A43"/>
  <ellipse cx="62" cy="53" rx="8" ry="9" fill="#3A5A43"/>
  <circle cx="38" cy="55" r="5.5" fill="#1B2A20"/>
  <circle cx="62" cy="55" r="5.5" fill="#1B2A20"/>
  <circle cx="40.5" cy="50.5" r="2.2" fill="#F4EDDA"/>
  <circle cx="64.5" cy="50.5" r="2.2" fill="#F4EDDA"/>
  <ellipse cx="50" cy="68" rx="2.4" ry="1.9" fill="#B9A784"/>
</svg>
